<svg width="48" height="48" viewBox="0 0 48 48" fill="none" xmlns="http://www.w3.org/2000/svg">
<path d="M45 38H3C2.20435 38 1.44129 37.6839 0.87868 37.1213C0.31607 36.5587 0 35.7956 0 35L0 13C0 12.2044 0.31607 11.4413 0.87868 10.8787C1.44129 10.3161 2.20435 10 3 10H45C45.7956 10 46.5587 10.3161 47.1213 10.8787C47.6839 11.4413 48 12.2044 48 13V35C48 35.7956 47.6839 36.5587 47.1213 37.1213C46.5587 37.6839 45.7956 38 45 38ZM3 12C2.73478 12 2.48043 12.1054 2.29289 12.2929C2.10536 12.4804 2 12.7348 2 13V35C2 35.2652 2.10536 35.5196 2.29289 35.7071C2.48043 35.8946 2.73478 36 3 36H45C45.2652 36 45.5196 35.8946 45.7071 35.7071C45.8946 35.5196 46 35.2652 46 35V13C46 12.7348 45.8946 12.4804 45.7071 12.2929C45.5196 12.1054 45.2652 12 45 12H3Z" fill="#ffffff" id="id_101"></path>
<path d="M5 17C5.55228 17 6 16.5523 6 16C6 15.4477 5.55228 15 5 15C4.44772 15 4 15.4477 4 16C4 16.5523 4.44772 17 5 17Z" fill="#ffffff" id="id_102"></path>
<path d="M9 17C9.55228 17 10 16.5523 10 16C10 15.4477 9.55228 15 9 15C8.44772 15 8 15.4477 8 16C8 16.5523 8.44772 17 9 17Z" fill="#ffffff" id="id_103"></path>
<path d="M10 21C10.5523 21 11 20.5523 11 20C11 19.4477 10.5523 19 10 19C9.44772 19 9 19.4477 9 20C9 20.5523 9.44772 21 10 21Z" fill="#ffffff" id="id_104"></path>
<path d="M12 25C12.5523 25 13 24.5523 13 24C13 23.4477 12.5523 23 12 23C11.4477 23 11 23.4477 11 24C11 24.5523 11.4477 25 12 25Z" fill="#ffffff" id="id_105"></path>
<path d="M16 25C16.5523 25 17 24.5523 17 24C17 23.4477 16.5523 23 16 23C15.4477 23 15 23.4477 15 24C15 24.5523 15.4477 25 16 25Z" fill="#ffffff" id="id_106"></path>
<path d="M20 25C20.5523 25 21 24.5523 21 24C21 23.4477 20.5523 23 20 23C19.4477 23 19 23.4477 19 24C19 24.5523 19.4477 25 20 25Z" fill="#ffffff" id="id_107"></path>
<path d="M24 25C24.5523 25 25 24.5523 25 24C25 23.4477 24.5523 23 24 23C23.4477 23 23 23.4477 23 24C23 24.5523 23.4477 25 24 25Z" fill="#ffffff" id="id_108"></path>
<path d="M28 25C28.5523 25 29 24.5523 29 24C29 23.4477 28.5523 23 28 23C27.4477 23 27 23.4477 27 24C27 24.5523 27.4477 25 28 25Z" fill="#ffffff" id="id_109"></path>
<path d="M32 25C32.5523 25 33 24.5523 33 24C33 23.4477 32.5523 23 32 23C31.4477 23 31 23.4477 31 24C31 24.5523 31.4477 25 32 25Z" fill="#ffffff" id="id_110"></path>
<path d="M36 25C36.5523 25 37 24.5523 37 24C37 23.4477 36.5523 23 36 23C35.4477 23 35 23.4477 35 24C35 24.5523 35.4477 25 36 25Z" fill="#ffffff" id="id_111"></path>
<path d="M14 21C14.5523 21 15 20.5523 15 20C15 19.4477 14.5523 19 14 19C13.4477 19 13 19.4477 13 20C13 20.5523 13.4477 21 14 21Z" fill="#ffffff" id="id_112"></path>
<path d="M18 21C18.5523 21 19 20.5523 19 20C19 19.4477 18.5523 19 18 19C17.4477 19 17 19.4477 17 20C17 20.5523 17.4477 21 18 21Z" fill="#ffffff" id="id_113"></path>
<path d="M22 21C22.5523 21 23 20.5523 23 20C23 19.4477 22.5523 19 22 19C21.4477 19 21 19.4477 21 20C21 20.5523 21.4477 21 22 21Z" fill="#ffffff" id="id_114"></path>
<path d="M26 21C26.5523 21 27 20.5523 27 20C27 19.4477 26.5523 19 26 19C25.4477 19 25 19.4477 25 20C25 20.5523 25.4477 21 26 21Z" fill="#ffffff" id="id_115"></path>
<path d="M30 21C30.5523 21 31 20.5523 31 20C31 19.4477 30.5523 19 30 19C29.4477 19 29 19.4477 29 20C29 20.5523 29.4477 21 30 21Z" fill="#ffffff" id="id_116"></path>
<path d="M34 21C34.5523 21 35 20.5523 35 20C35 19.4477 34.5523 19 34 19C33.4477 19 33 19.4477 33 20C33 20.5523 33.4477 21 34 21Z" fill="#ffffff" id="id_117"></path>
<path d="M38 21C38.5523 21 39 20.5523 39 20C39 19.4477 38.5523 19 38 19C37.4477 19 37 19.4477 37 20C37 20.5523 37.4477 21 38 21Z" fill="#ffffff" id="id_118"></path>
<path d="M13 17C13.5523 17 14 16.5523 14 16C14 15.4477 13.5523 15 13 15C12.4477 15 12 15.4477 12 16C12 16.5523 12.4477 17 13 17Z" fill="#ffffff" id="id_119"></path>
<path d="M17 17C17.5523 17 18 16.5523 18 16C18 15.4477 17.5523 15 17 15C16.4477 15 16 15.4477 16 16C16 16.5523 16.4477 17 17 17Z" fill="#ffffff" id="id_120"></path>
<path d="M21 17C21.5523 17 22 16.5523 22 16C22 15.4477 21.5523 15 21 15C20.4477 15 20 15.4477 20 16C20 16.5523 20.4477 17 21 17Z" fill="#ffffff" id="id_121"></path>
<path d="M25 17C25.5523 17 26 16.5523 26 16C26 15.4477 25.5523 15 25 15C24.4477 15 24 15.4477 24 16C24 16.5523 24.4477 17 25 17Z" fill="#ffffff" id="id_122"></path>
<path d="M29 17C29.5523 17 30 16.5523 30 16C30 15.4477 29.5523 15 29 15C28.4477 15 28 15.4477 28 16C28 16.5523 28.4477 17 29 17Z" fill="#ffffff" id="id_123"></path>
<path d="M33 17C33.5523 17 34 16.5523 34 16C34 15.4477 33.5523 15 33 15C32.4477 15 32 15.4477 32 16C32 16.5523 32.4477 17 33 17Z" fill="#ffffff" id="id_124"></path>
<path d="M37 17C37.5523 17 38 16.5523 38 16C38 15.4477 37.5523 15 37 15C36.4477 15 36 15.4477 36 16C36 16.5523 36.4477 17 37 17Z" fill="#ffffff" id="id_125"></path>
<path d="M43 33H5C4.73478 33 4.48043 32.8946 4.29289 32.7071C4.10536 32.5196 4 32.2652 4 32C4 31.7348 4.10536 31.4804 4.29289 31.2929C4.48043 31.1054 4.73478 31 5 31H43C43.2652 31 43.5196 31.1054 43.7071 31.2929C43.8946 31.4804 44 31.7348 44 32C44 32.2652 43.8946 32.5196 43.7071 32.7071C43.5196 32.8946 43.2652 33 43 33Z" fill="#ffffff" id="id_126"></path>
<path d="M5 29C5.55228 29 6 28.5523 6 28C6 27.4477 5.55228 27 5 27C4.44772 27 4 27.4477 4 28C4 28.5523 4.44772 29 5 29Z" fill="#ffffff" id="id_127"></path>
<path d="M9 29C9.55228 29 10 28.5523 10 28C10 27.4477 9.55228 27 9 27C8.44772 27 8 27.4477 8 28C8 28.5523 8.44772 29 9 29Z" fill="#ffffff" id="id_128"></path>
<path d="M39 29C39.5523 29 40 28.5523 40 28C40 27.4477 39.5523 27 39 27C38.4477 27 38 27.4477 38 28C38 28.5523 38.4477 29 39 29Z" fill="#ffffff" id="id_129"></path>
<path d="M35 29C35.5523 29 36 28.5523 36 28C36 27.4477 35.5523 27 35 27C34.4477 27 34 27.4477 34 28C34 28.5523 34.4477 29 35 29Z" fill="#ffffff" id="id_130"></path>
<path d="M43 29C43.5523 29 44 28.5523 44 28C44 27.4477 43.5523 27 43 27C42.4477 27 42 27.4477 42 28C42 28.5523 42.4477 29 43 29Z" fill="#ffffff" id="id_131"></path>
<path d="M31 29H13C12.7348 29 12.4804 28.8946 12.2929 28.7071C12.1054 28.5196 12 28.2652 12 28C12 27.7348 12.1054 27.4804 12.2929 27.2929C12.4804 27.1054 12.7348 27 13 27H31C31.2652 27 31.5196 27.1054 31.7071 27.2929C31.8946 27.4804 32 27.7348 32 28C32 28.2652 31.8946 28.5196 31.7071 28.7071C31.5196 28.8946 31.2652 29 31 29Z" fill="#ffffff" id="id_132"></path>
<path d="M43 25H40C39.7348 25 39.4804 24.8946 39.2929 24.7071C39.1054 24.5196 39 24.2652 39 24C39 23.7348 39.1054 23.4804 39.2929 23.2929C39.4804 23.1054 39.7348 23 40 23H43C43.2652 23 43.5196 23.1054 43.7071 23.2929C43.8946 23.4804 44 23.7348 44 24C44 24.2652 43.8946 24.5196 43.7071 24.7071C43.5196 24.8946 43.2652 25 43 25Z" fill="#ffffff" id="id_133"></path>
<path d="M43 17H41C40.7348 17 40.4804 16.8946 40.2929 16.7071C40.1054 16.5196 40 16.2652 40 16C40 15.7348 40.1054 15.4804 40.2929 15.2929C40.4804 15.1054 40.7348 15 41 15H43C43.2652 15 43.5196 15.1054 43.7071 15.2929C43.8946 15.4804 44 15.7348 44 16C44 16.2652 43.8946 16.5196 43.7071 16.7071C43.5196 16.8946 43.2652 17 43 17Z" fill="#ffffff" id="id_134"></path>
<path d="M43 21H42C41.7348 21 41.4804 20.8946 41.2929 20.7071C41.1054 20.5196 41 20.2652 41 20C41 19.7348 41.1054 19.4804 41.2929 19.2929C41.4804 19.1054 41.7348 19 42 19H43C43.2652 19 43.5196 19.1054 43.7071 19.2929C43.8946 19.4804 44 19.7348 44 20C44 20.2652 43.8946 20.5196 43.7071 20.7071C43.5196 20.8946 43.2652 21 43 21Z" fill="#ffffff" id="id_135"></path>
<path d="M8 25H5C4.73478 25 4.48043 24.8946 4.29289 24.7071C4.10536 24.5196 4 24.2652 4 24C4 23.7348 4.10536 23.4804 4.29289 23.2929C4.48043 23.1054 4.73478 23 5 23H8C8.26522 23 8.51957 23.1054 8.70711 23.2929C8.89464 23.4804 9 23.7348 9 24C9 24.2652 8.89464 24.5196 8.70711 24.7071C8.51957 24.8946 8.26522 25 8 25V25Z" fill="#ffffff" id="id_136"></path>
<path d="M6 21H5C4.73478 21 4.48043 20.8946 4.29289 20.7071C4.10536 20.5196 4 20.2652 4 20C4 19.7348 4.10536 19.4804 4.29289 19.2929C4.48043 19.1054 4.73478 19 5 19H6C6.26522 19 6.51957 19.1054 6.70711 19.2929C6.89464 19.4804 7 19.7348 7 20C7 20.2652 6.89464 20.5196 6.70711 20.7071C6.51957 20.8946 6.26522 21 6 21Z" fill="#ffffff" id="id_137"></path>
</svg>